<svg preserveAspectRatio="none" width="100%" height="100%" overflow="visible" style="display: block;" viewBox="0 0 154 32" fill="none" xmlns="http://www.w3.org/2000/svg">
<g id="2.LOTUS_NYO_">
<path id="Vector" d="M148.668 10.3278C148.842 10.1574 149.073 10.0644 149.317 10.0644H149.403V10.6751C148.824 10.7813 148.366 11.2387 148.26 11.818H147.176L148.666 10.3278H148.668ZM149.918 11.202C149.998 11.2256 150.073 11.2597 150.141 11.3029H150.857C150.647 10.9792 150.31 10.7459 149.917 10.6738V10.0631H150.596C151.079 10.0631 151.473 10.4563 151.473 10.9399C151.473 11.4235 151.079 11.8167 150.596 11.8167H149.917V11.2007L149.918 11.202ZM151.474 13.2085C151.474 13.6909 151.081 14.0827 150.597 14.0827H149.918V13.4759C150.311 13.4038 150.648 13.1705 150.858 12.8468H150.142C150.073 12.8901 149.998 12.9241 149.919 12.9477V12.3317H150.598C151.082 12.3317 151.475 12.7249 151.475 13.2085M148.75 12.0749C148.75 11.662 149.026 11.3134 149.403 11.202V12.9464C149.027 12.835 148.75 12.4864 148.75 12.0736M149.661 15.565C147.967 15.565 146.555 14.3566 146.241 12.7538L146.243 12.7511L146.663 12.3317H148.26C148.366 12.911 148.824 13.3684 149.403 13.4746V14.5965H150.596C151.362 14.5965 151.988 13.9739 151.988 13.2072C151.988 12.7393 151.756 12.3265 151.402 12.0736C151.757 11.8206 151.988 11.4064 151.988 10.9399C151.988 10.1732 151.364 9.54799 150.596 9.54799H149.315C148.936 9.54799 148.579 9.69347 148.305 9.96084L146.175 12.0906V12.0788C146.175 10.1535 147.736 8.59387 149.66 8.59387C151.039 8.59387 152.23 9.39465 152.795 10.5559H153.357C152.758 9.10107 151.327 8.07617 149.656 8.07617C147.446 8.07617 145.656 9.86647 145.656 12.0762C145.656 12.2466 145.667 12.413 145.687 12.5781L143.691 14.5742H144.419L145.811 13.1823C146.29 14.8534 147.83 16.0762 149.656 16.0762C151.318 16.0762 152.743 15.0631 153.347 13.6201H152.786C152.217 14.7721 151.031 15.565 149.659 15.565" fill="var(--fill-0, white)" fill-opacity="0.7"/>
<path id="Vector_2" d="M105.426 23.8658H102.627L102.587 23.816L94.9453 13.8252V23.8658H91.75V8.08203H94.5272L102.186 18.1004V8.08203H105.426V23.8658Z" fill="var(--fill-0, white)" fill-opacity="0.7"/>
<path id="Vector_3" d="M116.253 14.5862L119.924 8.14062H123.396L117.758 17.6793V23.8667H114.551V17.6583L108.67 8.14062H112.451L116.253 14.5862Z" fill="var(--fill-0, white)" fill-opacity="0.7"/>
<path id="Vector_4" d="M132.407 8.07617C128.01 8.07617 124.445 11.641 124.445 16.0382C124.445 20.4353 128.01 24.0002 132.407 24.0002C136.804 24.0002 140.369 20.4353 140.369 16.0382C140.369 11.641 136.804 8.07617 132.407 8.07617ZM132.407 20.8206C129.76 20.8206 127.612 18.6738 127.612 16.0264C127.612 13.3789 129.759 11.2321 132.407 11.2321C135.056 11.2321 137.202 13.3789 137.202 16.0264C137.202 18.6738 135.055 20.8206 132.407 20.8206Z" fill="var(--fill-0, white)" fill-opacity="0.7"/>
<path id="Vector_5" d="M78.5141 16.7652C77.9977 16.1623 77.3804 15.7219 76.6596 15.4428C75.9387 15.1636 75.0134 14.8844 73.8824 14.6053C72.7933 14.3549 71.9846 14.102 71.4551 13.8451C70.9256 13.5882 70.6596 13.1951 70.6596 12.6656C70.6596 12.1361 70.8889 11.7101 71.349 11.3864C71.8077 11.064 72.518 10.9015 73.48 10.9015C74.8509 10.9015 76.2218 11.3051 77.5927 12.1138L78.653 9.40213C77.9741 8.96176 77.1825 8.62362 76.2782 8.38771C75.3739 8.15311 74.4473 8.03516 73.501 8.03516C72.1445 8.03516 70.9964 8.24879 70.0567 8.67474C69.117 9.10069 68.4132 9.67736 67.9479 10.4061C67.4813 11.1335 67.248 11.946 67.248 12.8425C67.248 13.8713 67.5062 14.6944 68.0213 15.3117C68.5377 15.929 69.155 16.3772 69.8758 16.6564C70.5967 16.9355 71.522 17.2147 72.653 17.4939C73.387 17.6695 73.9702 17.832 74.4014 17.9788C74.8326 18.1256 75.1864 18.3209 75.4617 18.5633C75.7369 18.8058 75.8745 19.1112 75.8745 19.4781C75.8745 19.9775 75.6412 20.3785 75.1747 20.68C74.7081 20.9814 73.9872 21.1321 73.0121 21.1321C72.1366 21.1321 71.2598 20.9854 70.383 20.6905C69.5062 20.3969 68.7513 20.0076 68.1144 19.5227L67.7631 19.2383L67.366 22.5096C67.9676 22.9041 68.7068 23.2344 69.5875 23.5017C70.6832 23.832 71.8169 23.9971 72.9899 23.9971C74.3463 23.9971 75.4984 23.7835 76.446 23.3576C77.3922 22.9316 78.1026 22.3549 78.5757 21.6262C79.0488 20.8989 79.2861 20.0941 79.2861 19.2121C79.2861 18.1833 79.0279 17.3681 78.5115 16.7652" fill="var(--fill-0, white)" fill-opacity="0.7"/>
<path id="Vector_6" d="M22.3555 8C17.9374 8 14.3555 11.5819 14.3555 16C14.3555 20.4181 17.9374 24 22.3555 24C26.7736 24 30.3555 20.4181 30.3555 16C30.3555 11.5819 26.7736 8 22.3555 8ZM22.3555 20.8047C19.6949 20.8047 17.5376 18.6474 17.5376 15.9869C17.5376 13.3263 19.6949 11.1691 22.3555 11.1691C25.016 11.1691 27.1733 13.3263 27.1733 15.9869C27.1733 18.6474 25.016 20.8047 22.3555 20.8047Z" fill="var(--fill-0, white)" fill-opacity="0.7"/>
<path id="Vector_7" d="M59.9124 8.26758V17.1038C59.9124 19.0657 58.3226 20.6542 56.3619 20.6542C54.4013 20.6542 52.8115 19.0644 52.8115 17.1038V8.37505H49.4668V17.1051C49.4668 20.9137 52.5533 24.0015 56.3619 24.0015C60.1706 24.0015 63.2584 20.9137 63.2584 17.1051V8.26758H59.9124Z" fill="var(--fill-0, white)" fill-opacity="0.7"/>
<path id="Vector_8" d="M32.9544 8.26758L32.5625 11.4996H37.5559V23.7643H40.9203V11.4996H45.9308L45.5389 8.26758H32.9544Z" fill="var(--fill-0, white)" fill-opacity="0.7"/>
<path id="Vector_9" d="M1 8.26758V23.7643H12.3028L12.6972 20.51H4.36566V8.26758H1Z" fill="var(--fill-0, white)" fill-opacity="0.7"/>
</g>
</svg>
